
            <svg width="216" height="48" viewBox="0 0 1156 256" fill="none" xmlns="http://www.w3.org/2000/svg" xmlns:xlink="http://www.w3.org/1999/xlink" version="1.1">
        
		<g transform="translate(0, 0)">
            
			<svg width="256" height="256" viewBox="0 0 256 256" fill="none" xmlns="http://www.w3.org/2000/svg" id="proxmox">
<style>
#proxmox {
    rect {fill: #242938}
    @media (prefers-color-scheme: light) {
        rect {fill: #F4F2ED}
        path[fill="#F1F1F1"] {fill: #1F1F1F}
    }
}
</style>
<rect width="256" height="256" rx="60" fill="#242938" />
<path d="M175.298 127.562L223.528 180.563C218.228 186.04 210.808 189.398 202.679 189.398C194.023 189.398 186.427 185.687 181.127 179.857L154.45 150.531L133.602 127.562L154.45 104.771L181.127 75.4432C186.427 69.6144 194.023 65.9022 202.679 65.9022C210.808 65.9022 218.228 69.2592 223.528 74.5597L175.298 127.562Z" fill="#E57000"/>
<path d="M81.2305 127.561L33 180.563C38.3003 186.039 45.7203 189.397 53.8491 189.397C62.505 189.397 70.1012 185.687 75.4017 179.856L102.078 150.53L122.926 127.561L102.078 104.77L75.4017 75.4424C70.1012 69.6135 62.505 65.9016 53.8491 65.9016C45.7203 65.9016 38.3003 69.2584 33 74.5589L81.2305 127.561Z" fill="#E57000"/>
<path d="M147.269 153.841L128.24 132.877L109.211 153.841L65.1885 202.219C70.0259 207.057 76.8002 210.121 84.2153 210.121C92.1175 210.121 98.7303 206.895 103.728 201.413L128.24 174.644L152.588 201.413C157.427 206.732 164.36 210.121 172.261 210.121C179.68 210.121 186.453 207.057 191.29 202.219L147.269 153.841Z" fill="#F1F1F1"/>
<path d="M147.267 101.279L128.239 122.243L109.21 101.279L65.187 52.9015C70.0245 48.0639 76.7989 45 84.214 45C92.1162 45 98.7288 48.226 103.727 53.7079L128.239 80.4763L152.587 53.7079C157.425 48.3881 164.358 45 172.259 45C179.678 45 186.451 48.0639 191.289 52.9015L147.267 101.279Z" fill="#F1F1F1"/>
</svg>

		</g>
		
		<g transform="translate(300, 0)">
            
			<svg width="256" height="256" viewBox="0 0 256 256" fill="none" xmlns="http://www.w3.org/2000/svg">
<path d="M196 0H60C26.8629 0 0 26.8629 0 60V196C0 229.137 26.8629 256 60 256H196C229.137 256 256 229.137 256 196V60C256 26.8629 229.137 0 196 0Z" fill="#F47421"/>
<ellipse cx="167.152" cy="60.5" rx="15.6932" ry="15.5" fill="white"/>
<ellipse cx="167.152" cy="195.5" rx="15.6932" ry="15.5" fill="white"/>
<path fill-rule="evenodd" clip-rule="evenodd" d="M179.011 78.9319C175.686 80.8809 171.805 82 167.658 82C155.356 82 145.384 72.1503 145.384 60L145.384 59.9704C140.029 58.6826 134.434 58 128.678 58C116.52 58 105.083 61.0453 95.1047 66.4057L107.263 87.2048C113.661 83.8809 120.947 82 128.678 82C153.271 82 173.363 101.034 174.677 125H199C198.359 107.091 190.857 90.9061 179.011 78.9319ZM174.611 131H198.957C198.078 148.511 190.636 164.317 179.011 176.068C175.686 174.119 171.805 173 167.658 173C155.356 173 145.384 182.85 145.384 195L145.384 195.03C140.029 196.317 134.434 197 128.678 197C116.75 197 105.515 194.069 95.6715 188.895L107.835 168.087C114.094 171.229 121.176 173 128.678 173C152.928 173 172.802 154.494 174.611 131ZM61.0171 146.652C65.7424 162.967 76.3535 176.828 90.4368 185.851L102.612 165.021C90.5322 156.819 82.6107 143.073 82.6107 127.5C82.6107 111.857 90.6028 98.0585 102.774 89.8694L90.6009 69.0446C76.1908 78.2204 65.3921 92.4523 60.7761 109.201C67.1907 113.063 71.4737 120.037 71.4737 128C71.4737 135.862 67.2978 142.762 61.0171 146.652Z" fill="white"/>
<ellipse cx="48.6932" cy="128.5" rx="15.6932" ry="15.5" fill="white"/>
</svg>

		</g>
		
		<g transform="translate(600, 0)">
            
			<svg width="256" height="256" viewBox="0 0 256 256" fill="none" xmlns="http://www.w3.org/2000/svg" id="windows">
<style>
#windows {
    path.rect {fill: #242938}

    @media (prefers-color-scheme: light) {
        path.rect {fill: #F4F2ED}
    }
}
</style>
<g clip-path="url(#clip0_33_480)">
<path d="M196 0H60C26.8629 0 0 26.8629 0 60V196C0 229.137 26.8629 256 60 256H196C229.137 256 256 229.137 256 196V60C256 26.8629 229.137 0 196 0Z" fill="#242938" class="rect"/>
<path d="M40 65.6631L110.968 55.9983L111 124.453L40.0656 124.857L40 65.6631ZM110.935 132.34L110.99 200.855L40.0557 191.102L40.0517 131.881L110.935 132.34ZM119.537 54.7335L213.636 41V123.582L119.537 124.33V54.7335ZM213.658 132.984L213.636 215.195L119.537 201.914L119.406 132.831L213.658 132.984Z" fill="#00ADEF"/>
</g>
<defs>
<clipPath id="clip0_33_480">
<rect width="256" height="256" fill="white"/>
</clipPath>
</defs>
</svg>

		</g>
		
		<g transform="translate(900, 0)">
            
			<svg xmlns="http://www.w3.org/2000/svg" width="256" height="256" fill="none" viewBox="0 0 256 256">
<rect width="256" height="256" fill="#2396ED" rx="60"/>
<path d="M141.187 122.123H161.904V103.379H141.187V122.123ZM116.525 122.123H137.241V103.379H116.525V122.123ZM92.3554 122.123H113.072V103.379H92.3554V122.123ZM68.1859 122.123H88.4093V103.379H68.1859V122.123ZM43.5233 122.123H64.2399V103.379H43.5233V122.123ZM68.1859 99.4333H88.4093V80.6896H68.1859V99.4333ZM92.3554 99.4333H113.072V80.6896H92.3554V99.4333ZM116.525 99.4333H137.241V80.6896H116.525V99.4333ZM116.525 76.7436H137.241V58H116.525V76.7436ZM228 113.738C228 113.738 219.121 105.352 200.871 108.312C198.898 94.0075 183.607 85.6222 183.607 85.6222C183.607 85.6222 169.303 102.886 179.661 122.123C176.702 123.603 171.769 125.576 164.37 125.576H28.7257C26.2594 134.948 26.2594 197.097 94.3284 197.097C143.16 197.097 179.661 174.408 196.925 132.974C222.574 134.948 228 113.738 228 113.738Z" fill="#fff" />
</svg>

		</g>
		</svg>