
            <svg width="273" height="48" viewBox="0 0 1456 256" fill="none" xmlns="http://www.w3.org/2000/svg" xmlns:xlink="http://www.w3.org/1999/xlink" version="1.1">
        
		<g transform="translate(0, 0)">
            
			<svg xmlns="http://www.w3.org/2000/svg" width="256" height="256" fill="none" viewBox="0 0 256 256" id="vscode">
<style>
#vscode {
    rect {fill: #242938}

    @media (prefers-color-scheme: light) {
        rect {fill: #F4F2ED}
    }
}
</style>
<rect width="256" height="256" fill="#242938" rx="60"/>
<path fill="#2489CA" d="M33.7158 100.208C33.7158 100.208 28.9814 96.795 34.6627 92.2381L47.8994 80.402C47.8994 80.402 51.6869 76.4172 55.6915 79.8891L177.84 172.368V216.714C177.84 216.714 177.781 223.678 168.844 222.908L33.7158 100.208Z"/>
<path fill="#1070B3" d="M65.1997 128.792L33.7157 157.415C33.7157 157.415 30.4805 159.822 33.7157 164.123L48.3333 177.418C48.3333 177.418 51.8052 181.147 56.9341 176.905L90.3119 151.596L65.1997 128.792Z"/>
<path fill="#0877B9" d="M120.474 129.029L178.215 84.9391L177.84 40.83C177.84 40.83 175.374 31.2033 167.148 36.2139L90.312 106.145L120.474 129.029Z"/>
<path fill="#3C99D4" d="M168.844 222.968C172.198 226.4 176.262 225.276 176.262 225.276L221.259 203.103C227.019 199.177 226.21 194.305 226.21 194.305V61.8982C226.21 56.0788 220.252 54.0667 220.252 54.0667L181.253 35.267C172.731 30 167.148 36.2139 167.148 36.2139C167.148 36.2139 174.328 31.0455 177.84 40.83V215.905C177.84 217.109 177.583 218.292 177.071 219.358C176.045 221.429 173.816 223.362 168.47 222.553L168.844 222.968Z"/>
</svg>

		</g>
		
		<g transform="translate(300, 0)">
            
			<svg xmlns="http://www.w3.org/2000/svg" width="256" height="256" fill="none" viewBox="0 0 256 256">
<rect width="256" height="256" fill="#007ACC" rx="60"/>
<path fill="#fff" d="M56.6112 128.849L56.5299 139.333H73.1902H89.8505L89.8505 186.673V234.012H101.635H113.419V186.673L113.419 139.333H130.079H146.739V129.052C146.739 123.363 146.618 118.609 146.455 118.487C146.333 118.325 126.056 118.243 101.472 118.284L56.7331 118.406L56.6112 128.849Z"/>
<path fill="#fff" d="M206.567 118.108C213.068 119.734 218.026 122.619 222.577 127.332C224.934 129.852 228.428 134.444 228.713 135.541C228.794 135.866 217.66 143.343 210.915 147.528C210.671 147.691 209.695 146.634 208.598 145.009C205.307 140.214 201.853 138.141 196.57 137.776C188.809 137.247 183.811 141.311 183.852 148.097C183.852 150.088 184.136 151.266 184.949 152.892C186.655 156.427 189.825 158.54 199.781 162.847C218.107 170.731 225.949 175.932 230.826 183.327C236.271 191.576 237.49 204.742 233.792 214.535C229.729 225.181 219.651 232.414 205.469 234.812C201.081 235.584 190.678 235.462 185.965 234.609C175.684 232.78 165.932 227.701 159.918 221.037C157.561 218.436 152.969 211.65 153.254 211.162C153.375 211 154.432 210.35 155.61 209.659C156.748 209.009 161.056 206.53 165.119 204.173L172.474 199.906L174.018 202.182C176.172 205.473 180.885 209.984 183.73 211.487C191.897 215.795 203.113 215.185 208.639 210.228C210.996 208.074 211.971 205.839 211.971 202.548C211.971 199.581 211.605 198.281 210.061 196.046C208.07 193.202 204.007 190.804 192.466 185.806C179.26 180.117 173.571 176.582 168.37 170.974C165.363 167.724 162.518 162.522 161.34 158.174C160.365 154.558 160.121 145.496 160.893 141.839C163.615 129.08 173.246 120.181 187.143 117.539C191.654 116.686 202.137 117.011 206.567 118.108Z"/>
</svg>

		</g>
		
		<g transform="translate(600, 0)">
            
			<svg width="256" height="256" viewBox="0 0 256 256" fill="none" xmlns="http://www.w3.org/2000/svg">
<rect width="256" height="256" rx="60" fill="url(#paint0_linear_206_664)"/>
<path fill-rule="evenodd" clip-rule="evenodd" d="M157.719 33.0112C159.353 35.039 160.185 37.7762 161.851 43.2479L198.247 162.809C184.576 155.715 169.903 150.747 154.734 148.077L131.037 67.9971C130.848 67.3583 130.457 66.7977 129.923 66.3993C129.389 66.0009 128.741 65.7861 128.075 65.787C127.408 65.788 126.76 66.0046 126.228 66.4045C125.695 66.8044 125.306 67.3661 125.119 68.0055L101.708 148.037C86.4709 150.694 71.7306 155.67 58 162.791L94.5734 43.221C96.2458 37.7568 97.0803 35.0256 98.714 33.002C100.156 31.2146 102.032 29.8264 104.163 28.9698C106.577 28 109.433 28 115.147 28H141.27C146.991 28 149.851 28 152.267 28.9723C154.4 29.8306 156.277 31.2212 157.719 33.0112Z" fill="#31274A"/>
<path fill-rule="evenodd" clip-rule="evenodd" d="M162.074 168.499C156.074 173.63 144.098 177.128 130.304 177.128C113.373 177.128 99.1821 171.857 95.4172 164.769C94.0709 168.832 93.7692 173.481 93.7692 176.452C93.7692 176.452 92.8817 191.037 103.026 201.181C103.026 195.913 107.296 191.643 112.564 191.643C121.592 191.643 121.582 199.52 121.573 205.911V206.481C121.573 216.181 127.501 224.496 135.932 228C134.634 225.329 133.962 222.398 133.966 219.428C133.966 210.177 139.398 206.732 145.71 202.73C150.732 199.545 156.312 196.006 160.158 188.906C162.229 185.082 163.31 180.801 163.303 176.452C163.303 173.679 162.872 171.007 162.074 168.499Z" fill="#FF5D01"/>
<path fill-rule="evenodd" clip-rule="evenodd" d="M162.074 168.499C156.074 173.63 144.098 177.128 130.304 177.128C113.373 177.128 99.1821 171.857 95.4172 164.769C94.0709 168.832 93.7692 173.481 93.7692 176.452C93.7692 176.452 92.8817 191.037 103.026 201.181C103.026 195.913 107.296 191.643 112.564 191.643C121.592 191.643 121.582 199.52 121.573 205.911V206.481C121.573 216.181 127.501 224.496 135.932 228C134.634 225.329 133.962 222.398 133.966 219.428C133.966 210.177 139.398 206.732 145.71 202.73C150.732 199.545 156.312 196.006 160.158 188.906C162.229 185.082 163.31 180.801 163.303 176.452C163.303 173.679 162.872 171.007 162.074 168.499Z" fill="url(#paint1_linear_206_664)"/>
<defs>
<linearGradient id="paint0_linear_206_664" x1="128" y1="0" x2="128" y2="256" gradientUnits="userSpaceOnUse">
<stop offset="0.192708" stop-color="#FCB3B2"/>
<stop offset="1" stop-color="#C587EE"/>
</linearGradient>
<linearGradient id="paint1_linear_206_664" x1="189.089" y1="126.765" x2="153.565" y2="201.132" gradientUnits="userSpaceOnUse">
<stop stop-color="#FF1639"/>
<stop offset="1" stop-color="#FF1639" stop-opacity="0"/>
</linearGradient>
</defs>
</svg>

		</g>
		
		<g transform="translate(900, 0)">
            
			<svg xmlns="http://www.w3.org/2000/svg" width="256" height="256" fill="none" viewBox="0 0 256 256" id="react">
<style>
#react {
    rect {fill: #242938}

    @media (prefers-color-scheme: light) {
        rect {fill: #F4F2ED}
    }
}
</style>
<rect width="256" height="256" fill="#242938" rx="60"/>
<path fill="#00D8FF" d="M128.001 146.951C138.305 146.951 146.657 138.598 146.657 128.295C146.657 117.992 138.305 109.639 128.001 109.639C117.698 109.639 109.345 117.992 109.345 128.295C109.345 138.598 117.698 146.951 128.001 146.951Z"/>
<path fill-rule="evenodd" stroke="#00D8FF" stroke-width="8.911" d="M128.002 90.3633C153.05 90.3633 176.319 93.9575 193.864 99.9976C215.003 107.275 228 118.306 228 128.295C228 138.704 214.226 150.423 191.525 157.944C174.363 163.63 151.779 166.598 128.002 166.598C103.624 166.598 80.5389 163.812 63.1834 157.881C41.2255 150.376 28 138.506 28 128.295C28 118.387 40.4096 107.441 61.2515 100.175C78.8617 94.0353 102.705 90.3633 127.998 90.3633H128.002Z" clip-rule="evenodd"/>
<path fill-rule="evenodd" stroke="#00D8FF" stroke-width="8.911" d="M94.9811 109.438C107.495 87.7402 122.232 69.3783 136.23 57.1971C153.094 42.5206 169.144 36.7728 177.796 41.7623C186.813 46.9623 190.084 64.7496 185.259 88.1712C181.614 105.879 172.9 126.925 161.021 147.523C148.842 168.641 134.897 187.247 121.09 199.315C103.619 214.587 86.7284 220.114 77.8833 215.013C69.3003 210.067 66.0181 193.846 70.1356 172.161C73.6145 153.838 82.3451 131.349 94.977 109.438L94.9811 109.438Z" clip-rule="evenodd"/>
<path fill-rule="evenodd" stroke="#00D8FF" stroke-width="8.911" d="M95.0123 147.578C82.4633 125.904 73.9194 103.962 70.3531 85.7517C66.0602 63.8109 69.0954 47.0355 77.7401 42.0315C86.7485 36.8163 103.792 42.866 121.674 58.7437C135.194 70.7479 149.077 88.8052 160.99 109.383C173.204 130.481 182.358 151.856 185.919 169.844C190.425 192.608 186.778 210.001 177.941 215.116C169.367 220.08 153.676 214.825 136.945 200.427C122.809 188.263 107.685 169.468 95.0123 147.578Z" clip-rule="evenodd"/>
</svg>

		</g>
		
		<g transform="translate(1200, 0)">
            
			<svg xmlns="http://www.w3.org/2000/svg" width="256" height="256" fill="none" viewBox="0 0 256 256">
<rect width="256" height="256" fill="#023430" rx="60"/>
<path fill="#10AA50" d="M171.173 107.591C160.636 61.1097 138.676 48.7357 133.074 39.9886C130.764 36.1353 128.717 32.1299 126.949 28C126.653 32.1292 126.109 34.7307 122.599 37.862C115.552 44.1454 85.6217 68.5354 83.1028 121.348C80.756 170.59 119.303 200.953 124.395 204.092C128.311 206.019 133.08 204.133 135.407 202.364C153.988 189.612 179.376 155.614 171.193 107.591"/>
<path fill="#B8C4C2" d="M128.545 177.871C127.575 190.059 126.88 197.141 124.416 204.106C124.416 204.106 126.033 215.709 127.169 228H131.188C132.147 219.345 133.61 210.753 135.572 202.268C130.369 199.708 128.745 188.566 128.545 177.871Z"/>
<path fill="#12924F" d="M135.565 202.275C130.307 199.846 128.786 188.469 128.552 177.871C129.852 160.388 130.231 142.849 129.688 125.326C129.412 116.132 129.818 40.1676 127.423 29.0461C129.062 32.8129 130.949 36.4662 133.074 39.9818C138.676 48.7358 160.643 61.1097 171.173 107.591C179.376 155.532 154.126 189.44 135.565 202.275Z"/>
</svg>

		</g>
		</svg>